<svg width="401" height="99" viewBox="0 0 401 99" fill="none" xmlns="http://www.w3.org/2000/svg">
<path fill-rule="evenodd" clip-rule="evenodd" d="M0.494141 24L13.4941 18C27.4941 12 53.4941 0 80.4941 0C107.494 0 133.494 12 160.494 24C187.494 36 213.494 48 240.494 40C267.494 32 293.494 4 320.494 2C347.494 0 373.494 24 387.494 36L400.494 48V84H387.494C373.494 84 347.494 84 320.494 84C293.494 84 267.494 84 240.494 84C213.494 84 187.494 84 160.494 84C133.494 84 107.494 84 80.4941 84C53.4941 84 27.4941 84 13.4941 84H0.494141V24Z" fill="#DD9292"/>
<path fill-rule="evenodd" clip-rule="evenodd" d="M61.4941 39L74.4941 33C88.4941 27 114.494 15 141.494 15C168.494 15 194.494 27 221.494 39C248.494 51 274.494 63 301.494 55C328.494 47 354.494 19 381.494 17C408.494 15 397.994 21 400.494 25.5V60.5V99H395.494C381.494 99 408.494 99 381.494 99C354.494 99 328.494 99 301.494 99C274.494 99 248.494 99 221.494 99C194.494 99 168.494 99 141.494 99C114.494 99 88.4941 99 74.4941 99H61.4941V39Z" fill="#F75656"/>
<rect x="389.494" y="20" width="11" height="9" fill="#F65656"/>
<path fill-rule="evenodd" clip-rule="evenodd" d="M0.494141 39L13.4941 33C27.4941 27 53.4941 15 80.4941 15C107.494 15 133.494 27 160.494 39C187.494 51 213.494 63 240.494 55C267.494 47 293.494 19 320.494 17C347.494 15 373.494 39 387.494 51L400.494 63V99H387.494C373.494 99 347.494 99 320.494 99C293.494 99 267.494 99 240.494 99C213.494 99 187.494 99 160.494 99C133.494 99 107.494 99 80.4941 99C53.4941 99 27.4941 99 13.4941 99H0.494141V39Z" fill="#D04545"/>
</svg>
