<svg width="31" height="30" viewBox="0 0 31 30" fill="none" xmlns="http://www.w3.org/2000/svg">
<path id="Vector" d="M13.3941 21.9L23.9691 11.325L21.8691 9.225L13.3941 17.7L9.11914 13.425L7.01914 15.525L13.3941 21.9ZM15.4941 30C13.4191 30 11.4691 29.606 9.64414 28.818C7.81914 28.031 6.23164 26.9625 4.88164 25.6125C3.53164 24.2625 2.46314 22.675 1.67614 20.85C0.888141 19.025 0.494141 17.075 0.494141 15C0.494141 12.925 0.888141 10.975 1.67614 9.15C2.46314 7.325 3.53164 5.7375 4.88164 4.3875C6.23164 3.0375 7.81914 1.9685 9.64414 1.1805C11.4691 0.3935 13.4191 0 15.4941 0C17.5691 0 19.5191 0.3935 21.3441 1.1805C23.1691 1.9685 24.7566 3.0375 26.1066 4.3875C27.4566 5.7375 28.5251 7.325 29.3121 9.15C30.1001 10.975 30.4941 12.925 30.4941 15C30.4941 17.075 30.1001 19.025 29.3121 20.85C28.5251 22.675 27.4566 24.2625 26.1066 25.6125C24.7566 26.9625 23.1691 28.031 21.3441 28.818C19.5191 29.606 17.5691 30 15.4941 30Z"/>
</svg>
